<svg width="24" height="24" viewBox="0 0 24 24" fill="none" xmlns="http://www.w3.org/2000/svg">
<g clip-path="url(#clip0_3552_236)">
<path d="M6.50164 20.7306H2.31534V7.24939H6.50164V20.7306ZM4.40596 5.41045C3.0675 5.41045 1.98145 4.30131 1.98145 2.96285C1.98145 2.31983 2.23689 1.70314 2.69157 1.24846C3.14626 0.79377 3.76294 0.53833 4.40596 0.53833C5.04899 0.53833 5.66567 0.79377 6.12036 1.24846C6.57504 1.70314 6.83048 2.31983 6.83048 2.96285C6.83048 4.30131 5.74443 5.41045 4.40596 5.41045ZM22.1694 20.7306H17.9925V14.1681C17.9925 12.604 17.9608 10.5984 15.8161 10.5984C13.6396 10.5984 13.3057 12.2975 13.3057 14.0556V20.7306H9.12375V7.24939H13.1384V9.08833H13.1968C13.7557 8.02895 15.1209 6.91117 17.1574 6.91117C21.3942 6.91117 22.173 9.70131 22.173 13.3251V20.7306H22.1694Z" fill="black"/>
</g>
<defs>
<clipPath id="clip0_3552_236">
<rect width="23.0769" height="23.0769" fill="white" transform="translate(0.539062 0.53833)"/>
</clipPath>
</defs>
</svg>
